<svg width="18" height="18" viewBox="0 0 18 18" fill="none" xmlns="http://www.w3.org/2000/svg">
<path d="M1.00003 0.160563C0.539793 0.160563 0.166697 0.533659 0.166697 0.993896C0.166697 1.45413 0.539793 1.82723 1.00003 1.82723V0.160563ZM2.91048 0.993896L3.71483 0.77605C3.61645 0.412798 3.28682 0.160563 2.91048 0.160563V0.993896ZM6.01496 12.4566L5.2106 12.6744C5.31916 13.0753 5.70626 13.335 6.11832 13.2835L6.01496 12.4566ZM15.5672 11.2626L15.6706 12.0895C16.0245 12.0452 16.311 11.7807 16.3832 11.4314L15.5672 11.2626ZM17 4.33718L17.8161 4.50602C17.8669 4.26059 17.8045 4.00534 17.6462 3.81099C17.488 3.61665 17.2507 3.50385 17 3.50385V4.33718ZM3.81595 4.33718L3.0116 4.55503L3.81595 4.33718ZM1.00003 1.82723H2.91048V0.160563H1.00003V1.82723ZM6.11832 13.2835L15.6706 12.0895L15.4638 10.4357L5.91159 11.6297L6.11832 13.2835ZM16.3832 11.4314L17.8161 4.50602L16.184 4.16834L14.7511 11.0937L16.3832 11.4314ZM2.10612 1.21174L3.0116 4.55503L4.62031 4.11934L3.71483 0.77605L2.10612 1.21174ZM3.0116 4.55503L5.2106 12.6744L6.81931 12.2387L4.62031 4.11934L3.0116 4.55503ZM17 3.50385H3.81595V5.17052H17V3.50385ZM8.1667 15.5833C8.1667 15.8134 7.98015 16 7.75003 16V17.6666C8.90063 17.6666 9.83337 16.7339 9.83337 15.5833H8.1667ZM7.75003 16C7.51991 16 7.33337 15.8134 7.33337 15.5833H5.6667C5.6667 16.7339 6.59944 17.6666 7.75003 17.6666V16ZM7.33337 15.5833C7.33337 15.3532 7.51991 15.1666 7.75003 15.1666V13.5C6.59944 13.5 5.6667 14.4327 5.6667 15.5833H7.33337ZM7.75003 15.1666C7.98015 15.1666 8.1667 15.3532 8.1667 15.5833H9.83337C9.83337 14.4327 8.90063 13.5 7.75003 13.5V15.1666ZM14.8334 15.5833C14.8334 15.8134 14.6468 16 14.4167 16V17.6666C15.5673 17.6666 16.5 16.7339 16.5 15.5833H14.8334ZM14.4167 16C14.1866 16 14 15.8134 14 15.5833H12.3334C12.3334 16.7339 13.2661 17.6666 14.4167 17.6666V16ZM14 15.5833C14 15.3532 14.1866 15.1666 14.4167 15.1666V13.5C13.2661 13.5 12.3334 14.4327 12.3334 15.5833H14ZM14.4167 15.1666C14.6468 15.1666 14.8334 15.3532 14.8334 15.5833H16.5C16.5 14.4327 15.5673 13.5 14.4167 13.5V15.1666Z" fill="white"/>
</svg>
